Coordinates
version=1
nRows=38
nColumns=12
inDegrees=yes

Units are S.I. units (second, meters, Newtons, ...)
Angles are in degrees

endheader
time	SC_y	SC_z	SC_x	AC_y	AC_z	AC_x	GH_y	GH_z	GH_yy	EL_x	PS_y
       0.0              -35.33          24.95          80.67          63.07         -14.14          15.45          -54.5          12.21          42.95          133.3          17.17
  0.001824              -35.33          24.95          80.67          63.07         -14.14          15.45         -54.48           12.2          42.95          133.3          17.18
  0.003648              -35.33          24.96          80.67          63.07         -14.14          15.45         -54.45           12.2          42.96          133.3          17.18
  0.005472              -35.33          24.96          80.67          63.06         -14.14          15.45         -54.42           12.2          42.96          133.3          17.18
  0.007296              -35.33          24.96          80.66          63.06         -14.14          15.44         -54.38          12.19          42.97          133.3          17.18
   0.00912              -35.34          24.96          80.66          63.06         -14.13          15.44         -54.35          12.19          42.97          133.3          17.19
   0.01094              -35.34          24.96          80.66          63.06         -14.13          15.44         -54.31          12.18          42.97          133.3          17.19
   0.01277              -35.34          24.96          80.66          63.05         -14.13          15.43         -54.27          12.18          42.98          133.2           17.2
   0.01459              -35.34          24.96          80.66          63.05         -14.13          15.43         -54.23          12.17          42.98          133.2           17.2
   0.01642              -35.35          24.96          80.66          63.05         -14.13          15.42         -54.19          12.17          42.99          133.2           17.2
   0.01824              -35.35          24.96          80.65          63.04         -14.13          15.42         -54.14          12.16           43.0          133.2          17.21
   0.02006              -35.35          24.97          80.65          63.04         -14.13          15.41         -54.09          12.15           43.0          133.2          17.21
   0.02189              -35.36          24.97          80.65          63.03         -14.13          15.41         -54.03          12.14          43.01          133.1          17.22
   0.02371              -35.36          24.97          80.65          63.03         -14.13           15.4         -53.97          12.14          43.02          133.1          17.23
   0.02554              -35.37          24.97          80.65          63.02         -14.13          15.39          -53.9          12.13          43.02          133.1          17.23
   0.02736              -35.37          24.97          80.64          63.02         -14.13          15.39         -53.83          12.12          43.03          133.1          17.24
   0.02918              -35.38          24.98          80.64          63.01         -14.12          15.38         -53.76          12.11          43.04          133.0          17.25
   0.03101              -35.38          24.98          80.64          63.01         -14.12          15.37         -53.67          12.09          43.05          133.0          17.26
   0.03283              -35.39          24.98          80.63           63.0         -14.12          15.36         -53.58          12.08          43.06          133.0          17.27
   0.03466              -35.39          24.98          80.63          62.99         -14.12          15.35         -53.48          12.07          43.08          132.9          17.28
   0.03648               -35.4          24.99          80.62          62.98         -14.12          15.34         -53.37          12.05          43.09          132.9          17.29
    0.0383              -35.41          24.99          80.62          62.98         -14.11          15.33         -53.25          12.04           43.1          132.8           17.3
   0.04013              -35.42           25.0          80.61          62.97         -14.11          15.31         -53.11          12.02          43.12          132.8          17.31
   0.04195              -35.43           25.0          80.61          62.95         -14.11           15.3         -52.96           12.0          43.14          132.7          17.33
   0.04378              -35.44           25.0           80.6          62.94         -14.11          15.28          -52.8          11.97          43.16          132.7          17.34
    0.0456              -35.45          25.01          80.59          62.93          -14.1          15.26         -52.61          11.95          43.18          132.6          17.36
   0.04742              -35.46          25.02          80.59          62.91          -14.1          15.24          -52.4          11.92          43.21          132.5          17.38
   0.04925              -35.48          25.02          80.58          62.89         -14.09          15.22         -52.17          11.89          43.24          132.4          17.41
   0.05107               -35.5          25.03          80.57          62.88         -14.09          15.19         -51.91          11.85          43.27          132.3          17.43
    0.0529              -35.52          25.04          80.55          62.85         -14.08          15.16         -51.61          11.81           43.3          132.2          17.46
   0.05472              -35.54          25.05          80.54          62.83         -14.08          15.12         -51.27          11.76          43.35          132.0           17.5
   0.05654              -35.56          25.06          80.53           62.8         -14.07          15.08         -50.87          11.71          43.39          131.9          17.54
   0.05837              -35.59          25.08          80.51          62.76         -14.06          15.04         -50.42          11.65          43.45          131.7          17.58
   0.06019              -35.63          25.09          80.49          62.72         -14.05          14.98          -49.9          11.58          43.51          131.5          17.63
   0.06201              -35.67          25.11          80.46          62.68         -14.04          14.92         -49.28          11.49          43.59          131.2           17.7
   0.06384              -35.71          25.13          80.43          62.62         -14.03          14.85         -48.56          11.39          43.68          130.9          17.77
   0.06566              -35.77          25.16           80.4          62.56         -14.01          14.76          -47.7          11.27          43.78          130.6          17.85
   0.06749              -35.84          25.19          80.36          62.48         -13.99          14.65         -46.66          11.13          43.91          130.2          17.96
